HIERARCHY
ROOT hip
{
  OFFSET 5.70873 43.8894 -1.52928
  CHANNELS 6 Xposition Yposition Zposition Zrotation Xrotation Yrotation
  JOINT abdomen
  {
    OFFSET 0 5.99393 0.287273
    CHANNELS 6 Xposition Yposition Zposition Zrotation Xrotation Yrotation
    JOINT chest
    {
      OFFSET 0 6.65865 -0.856112
      CHANNELS 6 Xposition Yposition Zposition Zrotation Xrotation Yrotation
      JOINT neck
      {
        OFFSET 0 8.65624 -1.42685
        CHANNELS 6 Xposition Yposition Zposition Zrotation Xrotation Yrotation
        JOINT head
        {
          OFFSET 0 3.80999 -0.190247
          CHANNELS 6 Xposition Yposition Zposition Zrotation Xrotation Yrotation
          End Site
          {
            OFFSET 0 0 0
          }
        }
      }
      JOINT rCollar
      {
        OFFSET -1.4963 7.5744 -1.52136
        CHANNELS 6 Xposition Yposition Zposition Zrotation Xrotation Yrotation
        JOINT rShldr
        {
          OFFSET -5.47506 -0.905672 0.485692
          CHANNELS 6 Xposition Yposition Zposition Zrotation Xrotation Yrotation
          JOINT rForeArm
          {
            OFFSET -11.3069 -0.201091 0.618544
            CHANNELS 6 Xposition Yposition Zposition Zrotation Xrotation Yrotation
            JOINT rHand
            {
              OFFSET -9.61414 -0.254739 3.48553
              CHANNELS 6 Xposition Yposition Zposition Zrotation Xrotation Yrotation
              JOINT rThumb1
              {
                OFFSET 0.176263 -0.07068 1.26622
                CHANNELS 6 Xposition Yposition Zposition Zrotation Xrotation Yrotation
                JOINT rThumb2
                {
                  OFFSET -1.04683 -0.546484 1.82182
                  CHANNELS 6 Xposition Yposition Zposition Zrotation Xrotation Yrotation
                  JOINT rThumb3
                  {
                    OFFSET -0.993472 -0.621916 0.655506
                    CHANNELS 6 Xposition Yposition Zposition Zrotation Xrotation Yrotation
                    End Site
                    {
                      OFFSET -0.996134 -0.66263 0.644615
                    }
                  }
                }
              }
              JOINT rIndex1
              {
                OFFSET -2.64253 0.566363 2.4162
                CHANNELS 6 Xposition Yposition Zposition Zrotation Xrotation Yrotation
                JOINT rIndex2
                {
                  OFFSET -1.39394 -0.635138 0.899356
                  CHANNELS 6 Xposition Yposition Zposition Zrotation Xrotation Yrotation
                  JOINT rIndex3
                  {
                    OFFSET -0.622395 -0.856016 0.402182
                    CHANNELS 6 Xposition Yposition Zposition Zrotation Xrotation Yrotation
                    End Site
                    {
                      OFFSET -0.472476 -0.801802 0.34216
                    }
                  }
                }
              }
              JOINT rMid1
              {
                OFFSET -3.20814 0.514427 1.52547
                CHANNELS 6 Xposition Yposition Zposition Zrotation Xrotation Yrotation
                JOINT rMid2
                {
                  OFFSET -1.56545 -0.497974 0.68919
                  CHANNELS 6 Xposition Yposition Zposition Zrotation Xrotation Yrotation
                  JOINT rMid3
                  {
                    OFFSET -0.679943 -1.17582 0.444246
                    CHANNELS 6 Xposition Yposition Zposition Zrotation Xrotation Yrotation
                    End Site
                    {
                      OFFSET -0.343874 -0.941341 0.267611
                    }
                  }
                }
              }
              JOINT rRing1
              {
                OFFSET -3.47877 0.200518 0.597719
                CHANNELS 6 Xposition Yposition Zposition Zrotation Xrotation Yrotation
                JOINT rRing2
                {
                  OFFSET -1.28208 -0.53155 0.44672
                  CHANNELS 6 Xposition Yposition Zposition Zrotation Xrotation Yrotation
                  JOINT rRing3
                  {
                    OFFSET -0.710288 -0.970167 0.4032
                    CHANNELS 6 Xposition Yposition Zposition Zrotation Xrotation Yrotation
                    End Site
                    {
                      OFFSET -0.403228 -0.950952 0.378354
                    }
                  }
                }
              }
              JOINT rPinky1
              {
                OFFSET -3.42483 -0.278904 -0.240415
                CHANNELS 6 Xposition Yposition Zposition Zrotation Xrotation Yrotation
                JOINT rPinky2
                {
                  OFFSET -1.05787 -0.635999 0.156459
                  CHANNELS 6 Xposition Yposition Zposition Zrotation Xrotation Yrotation
                  JOINT rPinky3
                  {
                    OFFSET -0.42815 -0.754232 0.287187
                    CHANNELS 6 Xposition Yposition Zposition Zrotation Xrotation Yrotation
                    End Site
                    {
                      OFFSET -0.235717 -0.725605 0.279416
                    }
                  }
                }
              }
            }
          }
        }
      }
      JOINT lCollar
      {
        OFFSET 1.4963 7.5744 -1.52136
        CHANNELS 6 Xposition Yposition Zposition Zrotation Xrotation Yrotation
        JOINT lShldr
        {
          OFFSET 5.47506 -0.905672 0.485692
          CHANNELS 6 Xposition Yposition Zposition Zrotation Xrotation Yrotation
          JOINT lForeArm
          {
            OFFSET 11.3069 -0.201091 0.618544
            CHANNELS 6 Xposition Yposition Zposition Zrotation Xrotation Yrotation
            JOINT lHand
            {
              OFFSET 9.61414 -0.254739 3.48553
              CHANNELS 6 Xposition Yposition Zposition Zrotation Xrotation Yrotation
              JOINT lThumb1
              {
                OFFSET -0.176263 -0.07068 1.26622
                CHANNELS 6 Xposition Yposition Zposition Zrotation Xrotation Yrotation
                JOINT lThumb2
                {
                  OFFSET 1.04683 -0.546484 1.82182
                  CHANNELS 6 Xposition Yposition Zposition Zrotation Xrotation Yrotation
                  JOINT lThumb3
                  {
                    OFFSET 0.993472 -0.621916 0.655506
                    CHANNELS 6 Xposition Yposition Zposition Zrotation Xrotation Yrotation
                    End Site
                    {
                      OFFSET 0.996134 -0.66263 0.644615
                    }
                  }
                }
              }
              JOINT lIndex1
              {
                OFFSET 2.64253 0.566363 2.4162
                CHANNELS 6 Xposition Yposition Zposition Zrotation Xrotation Yrotation
                JOINT lIndex2
                {
                  OFFSET 1.39394 -0.635138 0.899356
                  CHANNELS 6 Xposition Yposition Zposition Zrotation Xrotation Yrotation
                  JOINT lIndex3
                  {
                    OFFSET 0.622395 -0.856016 0.402182
                    CHANNELS 6 Xposition Yposition Zposition Zrotation Xrotation Yrotation
                    End Site
                    {
                      OFFSET 0.472476 -0.801802 0.34216
                    }
                  }
                }
              }
              JOINT lMid1
              {
                OFFSET 3.20814 0.514427 1.52547
                CHANNELS 6 Xposition Yposition Zposition Zrotation Xrotation Yrotation
                JOINT lMid2
                {
                  OFFSET 1.56545 -0.497974 0.68919
                  CHANNELS 6 Xposition Yposition Zposition Zrotation Xrotation Yrotation
                  JOINT lMid3
                  {
                    OFFSET 0.679943 -1.17582 0.444246
                    CHANNELS 6 Xposition Yposition Zposition Zrotation Xrotation Yrotation
                    End Site
                    {
                      OFFSET 0.343874 -0.941341 0.267611
                    }
                  }
                }
              }
              JOINT lRing1
              {
                OFFSET 3.47877 0.200518 0.597719
                CHANNELS 6 Xposition Yposition Zposition Zrotation Xrotation Yrotation
                JOINT lRing2
                {
                  OFFSET 1.28208 -0.53155 0.44672
                  CHANNELS 6 Xposition Yposition Zposition Zrotation Xrotation Yrotation
                  JOINT lRing3
                  {
                    OFFSET 0.710288 -0.970167 0.4032
                    CHANNELS 6 Xposition Yposition Zposition Zrotation Xrotation Yrotation
                    End Site
                    {
                      OFFSET 0.403228 -0.950952 0.378354
                    }
                  }
                }
              }
              JOINT lPinky1
              {
                OFFSET 3.42483 -0.278904 -0.240415
                CHANNELS 6 Xposition Yposition Zposition Zrotation Xrotation Yrotation
                JOINT lPinky2
                {
                  OFFSET 1.05787 -0.635999 0.156459
                  CHANNELS 6 Xposition Yposition Zposition Zrotation Xrotation Yrotation
                  JOINT lPinky3
                  {
                    OFFSET 0.42815 -0.754232 0.287187
                    CHANNELS 6 Xposition Yposition Zposition Zrotation Xrotation Yrotation
                    End Site
                    {
                      OFFSET 0.235717 -0.725605 0.279416
                    }
                  }
                }
              }
            }
          }
        }
      }
    }
  }
  JOINT rThigh
  {
    OFFSET -4.17848 -1.02486 0.046356
    CHANNELS 6 Xposition Yposition Zposition Zrotation Xrotation Yrotation
    JOINT rShin
    {
      OFFSET 1.27155 -17.465 -0.237699
      CHANNELS 6 Xposition Yposition Zposition Zrotation Xrotation Yrotation
      JOINT rFoot
      {
        OFFSET 0.529163 -17.3815 -1.19582
        CHANNELS 6 Xposition Yposition Zposition Zrotation Xrotation Yrotation
        JOINT rToe
        {
          OFFSET -0.711591 -4.4863 4.0596
          CHANNELS 6 Xposition Yposition Zposition Zrotation Xrotation Yrotation
          End Site
          {
            OFFSET -0.869915 -1.10655 1.99006
          }
        }
      }
    }
  }
  JOINT lThigh
  {
    OFFSET 4.17848 -1.02486 0.046356
    CHANNELS 6 Xposition Yposition Zposition Zrotation Xrotation Yrotation
    JOINT lShin
    {
      OFFSET -1.27155 -17.465 -0.237699
      CHANNELS 6 Xposition Yposition Zposition Zrotation Xrotation Yrotation
      JOINT lFoot
      {
        OFFSET -0.529163 -17.3815 -1.19582
        CHANNELS 6 Xposition Yposition Zposition Zrotation Xrotation Yrotation
        JOINT lToe
        {
          OFFSET 0.711591 -4.4863 4.0596
          CHANNELS 6 Xposition Yposition Zposition Zrotation Xrotation Yrotation
          End Site
          {
            OFFSET 0.869915 -1.10655 1.99006
          }
        }
      }
    }
  }
}
MOTION
Frames:	4
Frame Time:	0.0333333
1.60474 43.167 -1.54385 -8.48028 -11.0484 7.46537 8.88178e-016 5.99393 0.287273 4.23844 4.21348 -3.03227 4.44089e-016 6.65865 -0.856112 8.72862 8.18426 -6.39393 8.88178e-016 8.65624 -1.42685 -0.473096 31.0814 -12.1034 -4.44089e-016 3.80999 -0.190247 21.7717 9.14572 -10.4349 -1.4963 7.5744 -1.52136 -18.7331 -3.94608 5.47406 -5.47506 -0.905672 0.485692 69.791 5.9302 22.8292 -11.3069 -0.201091 0.618544 73.8217 41.5442 105.712 -9.61414 -0.254739 3.48553 3.12172 26.3458 18.2676 0.176263 -0.07068 1.26622 -5.6109 5.84848 -8.73888 -1.04683 -0.546484 1.82182 1.48273 -1.44798 4.28419 -0.993472 -0.621916 0.655506 1.20075 -1.18895 3.4899 -2.64253 0.566363 2.4162 -6.78843 0.726914 0.811093 -1.39394 -0.635138 0.899356 -0.972614 -0.260423 0.141177 -0.622395 -0.856016 0.402182 -3.00059 -0.811302 0.420795 -3.20814 0.514427 1.52547 -5.81751 -1.74107 1.02966 -1.56545 -0.497974 0.68919 -4.60672 -1.44236 0.598708 -0.679943 -1.17582 0.444246 -5.39158 -1.69295 0.689241 -3.47877 0.200518 0.597719 -6.52838 -2.04954 -0.00110337 -1.28208 -0.53155 0.44672 -4.80624 -1.7024 0.808565 -0.710288 -0.970167 0.4032 -5.5934 -1.98811 0.927951 -3.42483 -0.278904 -0.240415 -6.3336 -2.17155 -0.797263 -1.05787 -0.635999 0.156459 -6.99766 -2.69818 1.02137 -0.42815 -0.754232 0.287187 -5.30865 -2.0413 0.806857 1.4963 7.5744 -1.52136 36.376 -2.95414 -4.66779 5.47506 -0.905672 0.485692 -79.5201 20.6504 -36.6971 11.3069 -0.201091 0.618544 -52.7119 30.9286 -113.777 9.61414 -0.254739 3.48553 -6.65456 -1.75598 -26.3218 -0.176263 -0.07068 1.26622 6.37206 3.3772 5.64002 1.04683 -0.546484 1.82182 -3.80909 -0.892376 -6.71946 0.993472 -0.621916 0.655506 -3.37323 -0.813886 -5.9568 2.64253 0.566363 2.4162 11.4866 -1.63342 -3.87693 1.39394 -0.635138 0.899356 5.8509 -2.08989 -2.25062 0.622395 -0.856016 0.402182 7.70296 -2.80409 -2.92397 3.20814 0.514427 1.52547 10.1189 -4.15657 -4.06967 1.56545 -0.497974 0.68919 9.07966 -3.77352 -3.40687 0.679943 -1.17582 0.444246 9.78144 -4.09024 -3.64839 3.47877 0.200518 0.597719 10.8316 -4.76049 -3.39108 1.28208 -0.53155 0.44672 9.04332 -4.16757 -3.87019 0.710288 -0.970167 0.4032 9.74456 -4.52026 -4.14706 3.42483 -0.278904 -0.240415 10.7537 -5.06826 -2.51487 1.05787 -0.635999 0.156459 10.9522 -5.50539 -4.47289 0.42815 -0.754232 0.287187 9.46374 -4.69697 -3.9181 -4.17848 -1.02486 0.046356 4.27936 -1.74077 6.0503 1.27155 -17.465 -0.237699 1.89638 16.6292 -0.212098 0.529163 -17.3815 -1.19582 6.3793 -6.39048 -12.3883 -0.711591 -4.4863 4.0596 0.132439 0.967099 -0.0269189 4.17848 -1.02486 0.046356 3.87584 -12.5325 -25.1001 -1.27155 -17.465 -0.237699 1.50169 35.104 -2.90833 -0.529163 -17.3815 -1.19582 -1.60662 -12.6117 3.19032 0.711591 -4.4863 4.0596 0.123641 -1.00448 0.0515841 
1.67492 42.5673 -1.53627 -8.62384 -11.6734 4.8661 0 5.99393 0.287273 4.84254 4.75897 -2.79613 2.22045e-016 6.65865 -0.856112 9.96222 9.25754 -6.01645 0 8.65624 -1.42685 -0.458819 30.6095 -11.7817 0 3.80999 -0.190247 21.7178 8.79112 -11.1865 -1.4963 7.5744 -1.52136 -17.8325 -3.73492 6.02913 -5.47506 -0.905672 0.485692 70.9605 7.46008 22.9204 -11.3069 -0.201091 0.618544 74.4562 41.0131 103.978 -9.61414 -0.254739 3.48553 3.44253 24.0562 20.2794 0.176263 -0.07068 1.26622 -5.67049 5.93416 -8.94721 -1.04683 -0.546484 1.82182 1.48274 -1.44795 4.28421 -0.993472 -0.621916 0.655506 1.20075 -1.18895 3.48992 -2.64253 0.566363 2.4162 -6.53826 1.35168 0.106969 -1.39394 -0.635138 0.899356 -0.721101 -0.192839 0.105107 -0.622395 -0.856016 0.402182 -2.74582 -0.741513 0.386701 -3.20814 0.514427 1.52547 -5.45598 -1.17713 0.948035 -1.56545 -0.497974 0.68919 -4.35471 -1.36214 0.568911 -0.679943 -1.17582 0.444246 -5.14206 -1.61309 0.660836 -3.47877 0.200518 0.597719 -6.21402 -2.06548 0.135439 -1.28208 -0.53155 0.44672 -4.55951 -1.61323 0.770485 -0.710288 -0.970167 0.4032 -5.34966 -1.89947 0.891514 -3.42483 -0.278904 -0.240415 -5.93805 -2.3112 -0.436356 -1.05787 -0.635999 0.156459 -6.75289 -2.60155 0.991158 -0.42815 -0.754232 0.287187 -5.0572 -1.94545 0.773826 1.4963 7.5744 -1.52136 37.1035 -2.94223 -5.73613 5.47506 -0.905672 0.485692 -80.2171 21.1755 -35.7 11.3069 -0.201091 0.618544 -52.3182 31.148 -112.133 9.61414 -0.254739 3.48553 -9.94901 -4.2739 -26.9278 -0.176263 -0.07068 1.26622 6.4827 3.4225 5.83786 1.04683 -0.546484 1.82182 -3.80913 -0.892423 -6.71947 0.993472 -0.621916 0.655506 -3.37323 -0.813889 -5.95681 2.64253 0.566363 2.4162 11.4643 -1.04829 -3.09481 1.39394 -0.635138 0.899356 5.61958 -2.00243 -2.16518 0.622395 -0.856016 0.402182 7.47368 -2.71433 -2.84176 3.20814 0.514427 1.52547 9.85688 -3.56512 -3.88004 1.56545 -0.497974 0.68919 8.85351 -3.67211 -3.32849 0.679943 -1.17582 0.444246 9.55353 -3.98694 -3.57048 3.47877 0.200518 0.597719 10.4977 -4.7303 -3.47384 1.28208 -0.53155 0.44672 8.82339 -4.05774 -3.78267 0.710288 -0.970167 0.4032 9.52764 -4.41066 -4.0619 3.42483 -0.278904 -0.240415 10.2823 -5.13556 -2.81072 1.05787 -0.635999 0.156459 10.7367 -5.38734 -4.39373 0.42815 -0.754232 0.287187 9.25457 -4.58481 -3.83871 -4.17848 -1.02486 0.046356 4.29996 -6.03412 8.44592 1.27155 -17.465 -0.237699 3.36045 26.0679 -0.772252 0.529163 -17.3815 -1.19582 6.14494 -10.7634 -11.2432 -0.711591 -4.4863 4.0596 -0.0724543 -0.530013 0.0140102 4.17848 -1.02486 0.046356 0.823308 -13.3935 -34.0767 -1.27155 -17.465 -0.237699 1.89447 40.4782 -3.70568 -0.529163 -17.3815 -1.19582 -3.7731 -15.9669 -1.03164 0.711591 -4.4863 4.0596 0.486936 -3.91013 0.213661 
1.78617 42.0623 -1.53177 -9.14677 -11.9325 2.43773 -1.77636e-015 5.99393 0.287273 5.62793 5.06979 -2.52987 -5.55112e-017 6.65865 -0.856112 11.5405 9.86006 -5.57988 0 8.65624 -1.42685 -0.487169 30.9564 -12.3802 -2.22045e-016 3.80999 -0.190247 21.8995 8.56154 -11.9212 -1.4963 7.5744 -1.52136 -15.9649 -3.46947 6.90079 -5.47506 -0.905672 0.485692 71.233 8.22668 22.7539 -11.3069 -0.201091 0.618544 74.273 40.2626 101.168 -9.61414 -0.254739 3.48553 6.4917 21.3832 20.3251 0.176263 -0.07068 1.26622 -5.72565 6.0157 -9.14389 -1.04683 -0.546484 1.82182 1.48271 -1.44794 4.28422 -0.993472 -0.621916 0.655506 1.20074 -1.1889 3.48992 -2.64253 0.566363 2.4162 -6.28481 1.96215 -0.576445 -1.39394 -0.635138 0.899356 -0.469509 -0.125394 0.0687684 -0.622395 -0.856016 0.402182 -2.50583 -0.675914 0.354273 -3.20814 0.514427 1.52547 -5.10212 -0.629029 0.86888 -1.56545 -0.497974 0.68919 -4.11739 -1.28673 0.54056 -0.679943 -1.17582 0.444246 -4.89249 -1.53336 0.632077 -3.47877 0.200518 0.597719 -5.91046 -2.08136 0.266604 -1.28208 -0.53155 0.44672 -4.32652 -1.52917 0.734149 -0.710288 -0.970167 0.4032 -5.10588 -1.81096 0.854657 -3.42483 -0.278904 -0.240415 -5.55604 -2.4469 -0.0900266 -1.05787 -0.635999 0.156459 -6.52179 -2.51049 0.962259 -0.42815 -0.754232 0.287187 -4.84073 -1.85793 0.743131 1.4963 7.5744 -1.52136 37.4423 -2.90974 -7.531 5.47506 -0.905672 0.485692 -80.1233 21.4608 -35.7153 11.3069 -0.201091 0.618544 -52.4395 29.8701 -110.121 9.61414 -0.254739 3.48553 -15.85 -7.33289 -27.5619 -0.176263 -0.07068 1.26622 6.59321 3.46818 6.0356 1.04683 -0.546484 1.82182 -3.80918 -0.892487 -6.71943 0.993472 -0.621916 0.655506 -3.37323 -0.813897 -5.9568 2.64253 0.566363 2.4162 11.4295 -0.471106 -2.34715 1.39394 -0.635138 0.899356 5.38814 -1.91531 -2.07936 0.622395 -0.856016 0.402182 7.24427 -2.62491 -2.75916 3.20814 0.514427 1.52547 9.59608 -2.99243 -3.70252 1.56545 -0.497974 0.68919 8.62728 -3.57101 -3.24967 0.679943 -1.17582 0.444246 9.34465 -3.89257 -3.49877 3.47877 0.200518 0.597719 10.1753 -4.70274 -3.55244 1.28208 -0.53155 0.44672 8.61566 -3.95438 -3.69969 0.710288 -0.970167 0.4032 9.31056 -4.30136 -3.97631 3.42483 -0.278904 -0.240415 9.82364 -5.20046 -3.09782 1.05787 -0.635999 0.156459 10.5212 -5.26955 -4.31418 0.42815 -0.754232 0.287187 9.04524 -4.47293 -3.75891 -4.17848 -1.02486 0.046356 4.23969 -8.91584 9.4439 1.27155 -17.465 -0.237699 4.99834 31.961 -1.51618 0.529163 -17.3815 -1.19582 5.87574 -13.3167 -9.37073 -0.711591 -4.4863 4.0596 -0.276397 -2.02727 0.0496069 4.17848 -1.02486 0.046356 -1.84319 -13.4077 -41.9231 -1.27155 -17.465 -0.237699 2.06713 44.4405 -4.14305 -0.529163 -17.3815 -1.19582 -5.3593 -18.7861 -3.47785 0.711591 -4.4863 4.0596 0.727704 -5.79329 0.328877 
1.92097 41.6538 -1.55904 -9.95048 -11.4863 -0.194628 8.88178e-016 5.99393 0.287273 6.42694 5.09071 -2.19257 1.38778e-016 6.65865 -0.856112 13.1196 9.89817 -4.9738 0 8.65624 -1.42685 -0.507209 31.5067 -12.8148 0 3.80999 -0.190247 22.3792 8.2051 -12.2747 -1.4963 7.5744 -1.52136 -14.3258 -3.26552 7.48387 -5.47506 -0.905672 0.485692 71.3042 9.47972 22.4567 -11.3069 -0.201091 0.618544 76.5785 41.0525 96.8447 -9.61414 -0.254739 3.48553 6.21984 18.4838 21.8222 0.176263 -0.07068 1.26622 -5.78051 6.09743 -9.34048 -1.04683 -0.546484 1.82182 1.48267 -1.44789 4.28427 -0.993472 -0.621916 0.655506 1.20072 -1.18887 3.48994 -2.64253 0.566363 2.4162 -6.03274 2.549 -1.22953 -1.39394 -0.635138 0.899356 -0.241709 -0.0644793 0.0355946 -0.622395 -0.856016 0.402182 -2.26581 -0.610452 0.321599 -3.20814 0.514427 1.52547 -4.7613 -0.104756 0.793296 -1.56545 -0.497974 0.68919 -3.88006 -1.21145 0.511903 -0.679943 -1.17582 0.444246 -4.66755 -1.46161 0.605851 -3.47877 0.200518 0.597719 -5.61995 -2.09657 0.391662 -1.28208 -0.53155 0.44672 -4.0935 -1.44527 0.697463 -0.710288 -0.970167 0.4032 -4.88507 -1.73094 0.820986 -3.42483 -0.278904 -0.240415 -5.18977 -2.57614 0.241109 -1.05787 -0.635999 0.156459 -6.29067 -2.4195 0.93297 -0.42815 -0.754232 0.287187 -4.62423 -1.77057 0.712127 1.4963 7.5744 -1.52136 38.1375 -2.88695 -9.41538 5.47506 -0.905672 0.485692 -79.3984 21.6983 -36.2932 11.3069 -0.201091 0.618544 -53.4593 28.4962 -108.093 9.61414 -0.254739 3.48553 -20.4844 -13.2286 -28.7826 -0.176263 -0.07068 1.26622 6.69209 3.51089 6.21392 1.04683 -0.546484 1.82182 -3.80906 -0.892356 -6.71952 0.993472 -0.621916 0.655506 -3.37323 -0.813912 -5.95679 2.64253 0.566363 2.4162 11.3865 0.0867338 -1.63424 1.39394 -0.635138 0.899356 5.17949 -1.8371 -2.00173 0.622395 -0.856016 0.402182 7.04406 -2.54718 -2.68684 3.20814 0.514427 1.52547 9.3429 -2.44448 -3.53323 1.56545 -0.497974 0.68919 8.4233 -3.48021 -3.17834 0.679943 -1.17582 0.444246 9.1357 -3.79846 -3.42672 3.47877 0.200518 0.597719 9.86683 -4.67668 -3.62706 1.28208 -0.53155 0.44672 8.40781 -3.85132 -3.61635 0.710288 -0.970167 0.4032 9.1139 -4.20267 -3.89848 3.42483 -0.278904 -0.240415 9.38454 -5.26206 -3.37208 1.05787 -0.635999 0.156459 10.3268 -5.16369 -4.24208 0.42815 -0.754232 0.287187 8.8358 -4.36134 -3.6787 -4.17848 -1.02486 0.046356 3.83811 -11.4964 8.99174 1.27155 -17.465 -0.237699 6.52085 35.8627 -3.31069 0.529163 -17.3815 -1.19582 5.96797 -14.563 -5.06442 -0.711591 -4.4863 4.0596 -0.338286 -2.48293 0.0594377 4.17848 -1.02486 0.046356 -3.49028 -13.7827 -46.1971 -1.27155 -17.465 -0.237699 2.23813 47.6366 -4.56976 -0.529163 -17.3815 -1.19582 -6.06002 -21.0083 -3.80198 0.711591 -4.4863 4.0596 0.811133 -6.43708 0.370224 
